<svg width="1000" height="1000" xmlns="http://www.w3.org/2000/svg">

 <metadata id="metadata2">Svg Vector Icons : http://www.sfont.cnimage/svg+xml</metadata>
 <g>
  <title>background</title>
  <rect fill="none" id="canvas_background" height="402" width="582" y="-1" x="-1"/>
 </g>
 <g>
  <title>Layer 1</title>
  <g id="g12">
   <path d="m252.7,363l241.2,116.5l179.8,-406.7c0,0 4.1,-34.8 -26.6,-57.2c-30.7,-22.5 -73.6,30.7 -73.6,30.7l-320.8,316.7z" id="path4"/>
   <path d="m747.3,637l-241.2,-116.6l-179.8,406.8c0,0 -4.1,34.7 26.6,57.2c30.7,22.5 73.6,-30.7 73.6,-30.7l320.8,-316.7z" id="path6"/>
   <path d="m637,252.7l-116.6,241.2l406.8,179.9c0,0 34.7,4.1 57.2,-26.6c22.5,-30.7 -30.7,-73.6 -30.7,-73.6l-316.7,-320.9z" id="path8"/>
   <path d="m363,747.3l116.5,-241.2l-406.7,-179.8c0,0 -34.8,-4.1 -57.2,26.6c-22.5,30.7 30.7,73.6 30.7,73.6l316.7,320.8z" id="path10"/>
  </g>
  <text xml:space="preserve" text-anchor="start" font-family="Helvetica, Arial, sans-serif" font-size="101" id="svg_1" y="112" x="856.5" stroke-width="0" stroke="#000" fill="#00bf5f">CE</text>
 </g>
</svg>